<?xml version="1.0" encoding="utf-8"?>
<!-- Generator: Adobe Illustrator 22.0.0, SVG Export Plug-In . SVG Version: 6.00 Build 0)  -->
<svg version="1.1" id="Layer_1" xmlns="http://www.w3.org/2000/svg" xmlns:xlink="http://www.w3.org/1999/xlink" x="0px" y="0px"
	 viewBox="0 0 400 400" style="enable-background:new 0 0 400 400;" xml:space="preserve">
<style type="text/css">
	.st0{fill:#231F20;}
</style>
<g>
	<path class="st0" d="M215.8,178.6c-3-2.8-6.6-5-10.7-6.5c-4.1-1.6-8.6-2.4-13.3-2.4c-4.7,0-9.1,0.8-13.2,2.4
		c-4.1,1.6-7.7,3.7-10.7,6.5c-3,2.8-5.4,6.1-7.1,9.9c-1.7,3.8-2.6,8-2.6,12.5c0,4.5,0.9,8.6,2.6,12.4c1.7,3.8,4.1,7.1,7.1,9.9
		c3,2.8,6.6,5,10.7,6.5c4.1,1.6,8.5,2.3,13.2,2.3c4.8,0,9.2-0.8,13.3-2.3c4.1-1.6,7.7-3.7,10.7-6.5c3-2.8,5.4-6.1,7.1-9.9
		c1.7-3.8,2.6-8,2.6-12.4c0-4.5-0.9-8.7-2.6-12.5C221.2,184.7,218.8,181.4,215.8,178.6z M201.9,208.4c0,2.5-0.1,4.8-0.3,7.1
		c-0.2,2.3-0.5,4.4-0.9,6.4c-0.4,2-1,3.7-1.8,5.2c-0.8,1.5-1.7,2.7-2.9,3.5c-1.2,0.9-2.6,1.3-4.3,1.3c-1.7,0-3.1-0.4-4.3-1.3
		c-1.1-0.9-2.1-2-2.8-3.5c-0.8-1.5-1.3-3.2-1.7-5.2c-0.4-2-0.7-4.1-0.9-6.4c-0.2-2.3-0.3-4.7-0.3-7.1c0-2.5-0.1-4.9-0.1-7.3
		c0-2.4,0-4.8,0.1-7.2c0-2.4,0.1-4.8,0.3-7.1c0.2-2.3,0.5-4.4,0.9-6.5c0.4-2,1-3.8,1.7-5.3c0.8-1.5,1.7-2.7,2.9-3.6
		c1.2-0.9,2.6-1.3,4.2-1.3c1.7,0,3.1,0.4,4.3,1.3c1.2,0.9,2.1,2.1,2.9,3.6c0.8,1.5,1.3,3.3,1.8,5.3c0.4,2,0.7,4.2,0.9,6.5
		c0.2,2.3,0.3,4.6,0.3,7.1c0,2.4,0.1,4.8,0.1,7.2C202,203.5,202,205.9,201.9,208.4z"/>
	<path class="st0" d="M128.4,220.4c-0.1,2.7-0.6,4.8-1.3,6.4c-0.7,1.6-1.8,2.7-3.4,3.4c-1.5,0.7-3.7,1-6.5,1v0.3h47.8v-0.3
		c-3.1,0-5.6-0.4-7.3-1.3c-1.7-0.9-2.9-2.2-3.7-3.9c-0.8-1.7-1.2-3.9-1.4-6.4c-0.1-2.6-0.2-5.6-0.2-9v-39.5c0-3.5,0.1-6.6,0.2-9.1
		c0.1-2.6,0.6-4.7,1.4-6.4c0.8-1.7,2-3,3.7-3.8c1.7-0.8,4.1-1.2,7.3-1.2v-0.3h-35.1l22.9-59.9l0.1-0.3l-1.3-0.5l-43.2,113.2
		l-20.5-52.5H46.6v0.3c3.4,0,6.2,0.3,8.3,0.8c2.1,0.5,3.7,1.4,4.9,2.7c1.1,1.3,1.9,3,2.3,5.1c0.4,2.1,0.6,4.8,0.6,8V197
		c0,2.7,0,5.5-0.1,8.3c-0.1,2.8-0.3,5.4-0.7,8c-0.4,2.5-0.9,4.9-1.7,7.1c-0.8,2.2-1.9,4.1-3.2,5.7c-1.4,1.6-3.2,2.9-5.3,3.8
		c-2.1,0.9-4.7,1.4-7.8,1.4v0.3H82v-0.3c-3,0-5.6-0.5-7.7-1.5c-2.1-1-3.8-2.3-5.3-4c-1.4-1.7-2.5-3.6-3.3-5.9
		c-0.8-2.2-1.4-4.6-1.8-7.2s-0.7-5.1-0.8-7.8c-0.1-2.7-0.1-5.3-0.1-7.8v-43.4l33.2,81.2l-28.6,74.9l-0.1,0.3l1.3,0.5l59.9-156.8
		v56.9C128.6,214.5,128.5,217.8,128.4,220.4z"/>
	<path class="st0" d="M354.1,188.5c-1.7-3.8-4.1-7.1-7.1-9.9c-3-2.8-6.6-5-10.7-6.5c-4.1-1.6-8.6-2.4-13.3-2.4
		c-4.7,0-9.1,0.8-13.2,2.4c-4.1,1.6-7.7,3.7-10.7,6.5c-3,2.8-5.4,6.1-7.1,9.9s-2.6,8-2.6,12.5c0,4.5,0.9,8.6,2.6,12.4
		c1.7,3.8,4.1,7.1,7.1,9.9c3,2.8,6.6,5,10.7,6.5c4.1,1.6,8.5,2.3,13.2,2.3c4.8,0,9.2-0.8,13.3-2.3s7.7-3.7,10.7-6.5
		c3-2.8,5.4-6.1,7.1-9.9c1.7-3.8,2.6-8,2.6-12.4C356.7,196.5,355.8,192.4,354.1,188.5z M333.1,208.4c0,2.5-0.1,4.8-0.3,7.1
		c-0.2,2.3-0.5,4.4-0.9,6.4c-0.4,2-1,3.7-1.8,5.2c-0.8,1.5-1.7,2.7-2.9,3.5c-1.2,0.9-2.6,1.3-4.3,1.3c-1.7,0-3.1-0.4-4.3-1.3
		c-1.1-0.9-2.1-2-2.8-3.5c-0.8-1.5-1.3-3.2-1.7-5.2c-0.4-2-0.7-4.1-0.9-6.4c-0.2-2.3-0.3-4.7-0.3-7.1c0-2.5-0.1-4.9-0.1-7.3
		c0-2.4,0-4.8,0.1-7.2c0-2.4,0.1-4.8,0.3-7.1c0.2-2.3,0.5-4.4,0.9-6.5c0.4-2,1-3.8,1.7-5.3c0.8-1.5,1.7-2.7,2.9-3.6
		c1.2-0.9,2.6-1.3,4.2-1.3c1.7,0,3.1,0.4,4.3,1.3c1.2,0.9,2.1,2.1,2.9,3.6c0.8,1.5,1.3,3.3,1.8,5.3c0.4,2,0.7,4.2,0.9,6.5
		c0.2,2.3,0.3,4.6,0.3,7.1c0,2.4,0.1,4.8,0.1,7.2C333.1,203.5,333.1,205.9,333.1,208.4z"/>
	<path class="st0" d="M286.4,213.8c-1.5,1.1-3,2.1-4.6,2.8c-1.6,0.7-3.2,1.2-4.9,1.5c-1.7,0.3-3.2,0.5-4.8,0.5c-3,0-5.9-0.6-8.5-1.7
		c-2.7-1.1-5-2.8-7-5c-2-2.2-3.5-4.9-4.7-8.1c-1.2-3.2-1.7-6.9-1.7-11c0-1.4,0.1-2.9,0.2-4.5c0.2-1.6,0.4-3.3,0.8-5s0.9-3.3,1.5-4.8
		c0.6-1.6,1.4-3,2.3-4.2c0.9-1.2,2-2.2,3.3-2.9c1.3-0.7,2.8-1.1,4.5-1.1c1.4,0,2.7,0.3,3.8,0.8c1.1,0.5,2.1,1.2,2.8,2.1
		c0.8,0.9,1.3,1.9,1.7,3c0.4,1.1,0.6,2.3,0.6,3.5c0,1.7-0.4,3.2-1.1,4.5c-0.7,1.3-1.7,2.3-3,2.9c0.1,1.7,0.4,3.1,1,4.3
		c0.6,1.2,1.4,2.2,2.3,3c0.9,0.8,2,1.4,3.2,1.8c1.2,0.4,2.5,0.6,3.8,0.6c1.4,0,2.7-0.2,4.1-0.6c1.3-0.4,2.5-1.1,3.5-2
		c1-0.9,1.8-2,2.4-3.4c0.6-1.4,0.9-3,0.9-4.8c0-2.1-0.4-3.9-1.2-5.6c-0.8-1.6-1.8-3-3.2-4.2c-1.3-1.2-2.8-2.2-4.6-3
		c-1.7-0.8-3.6-1.5-5.5-1.9s-3.8-0.8-5.8-1c-2-0.2-3.8-0.3-5.5-0.3c-5,0-9.6,0.8-13.8,2.4c-4.2,1.6-7.8,3.8-10.8,6.6
		s-5.4,6.2-7.1,10.2c-1.7,4-2.5,8.3-2.5,13.1c0,4.6,0.8,8.8,2.3,12.5c1.5,3.7,3.7,6.9,6.4,9.5c2.7,2.6,5.9,4.7,9.5,6.1
		c3.7,1.4,7.6,2.1,11.8,2.1c3.9,0,7.5-0.6,10.8-1.8c3.2-1.2,6.1-2.8,8.7-4.9c2.6-2,4.9-4.4,6.8-7.2c2-2.7,3.7-5.6,5-8.7l-0.2-0.1
		C289.1,211.3,287.8,212.7,286.4,213.8z"/>
	<path class="st0" d="M169.3,258.2l0,11.5c0,1.7-0.2,2.9-0.8,3.6c-0.8,1.1-1.9,1.7-3.4,1.7c-1.5,0-2.6-0.5-3.4-1.6
		c-0.5-0.8-0.8-2-0.8-3.6l-0.1-11.5l-2.9,0l0.1,12.3c0,2,0.6,3.7,1.9,5c1.4,1.5,3.1,2.2,5.2,2.2c2.1,0,3.8-0.7,5.2-2.2
		c1.3-1.3,1.9-3,1.9-5l-0.1-12.3L169.3,258.2z"/>
	<polygon class="st0" points="136,271.8 129.4,257 125.4,277.5 128.4,277.5 130.4,266 136,278.4 141.6,265.9 143.5,277.5 
		146.4,277.4 142.7,256.9 	"/>
	<path class="st0" d="M239.9,257.9l0,11.5c0,1.7-0.3,2.9-0.8,3.6c-0.8,1.1-1.9,1.7-3.4,1.7c-1.5,0-2.6-0.5-3.4-1.6
		c-0.5-0.8-0.8-2-0.8-3.6l-0.1-11.5l-2.9,0l0.1,12.3c0,2,0.6,3.7,1.9,5c1.4,1.4,3.1,2.2,5.2,2.2c2.1,0,3.8-0.7,5.2-2.2
		c1.3-1.3,1.9-3,1.9-5l-0.1-12.3L239.9,257.9z"/>
	<path class="st0" d="M191.2,265.9l-1.9-0.8c-1.4-0.6-2.1-1.3-2.1-2.2c0-0.7,0.3-1.2,0.8-1.7c0.5-0.5,1.2-0.7,2-0.7
		c0.7,0,1.2,0.1,1.6,0.4c0.4,0.2,0.8,0.7,1.3,1.5l2.3-1.4c-1.2-2.1-3-3.2-5.2-3.2c-1.6,0-3,0.5-4.1,1.5c-1.1,1-1.6,2.2-1.6,3.6
		c0,2.1,1.3,3.7,3.9,4.8l1.9,0.8c0.5,0.2,0.9,0.4,1.2,0.6s0.6,0.5,0.8,0.7c0.2,0.3,0.4,0.5,0.5,0.9c0.1,0.3,0.2,0.6,0.2,1
		c0,0.9-0.3,1.7-0.9,2.3c-0.6,0.6-1.3,0.9-2.2,0.9c-1.1,0-2-0.4-2.6-1.2c-0.3-0.4-0.6-1.2-0.7-2.3l-2.9,0.7c0.3,1.8,0.9,3.2,2,4.1
		c1.1,1,2.5,1.5,4.1,1.5c1.8,0,3.2-0.6,4.4-1.8c1.2-1.2,1.7-2.6,1.7-4.4c0-1.3-0.4-2.4-1.1-3.3C193.9,267.3,192.7,266.5,191.2,265.9
		z"/>
	<polygon class="st0" points="265,271.2 258.3,256.4 254.4,277 257.4,277 259.4,265.4 264.9,277.8 270.5,265.4 272.4,276.9 
		275.4,276.9 271.7,256.3 	"/>
	<polygon class="st0" points="209.7,274.5 209.6,268.1 217.1,268 217.1,265.3 209.6,265.4 209.6,260.8 217.3,260.7 217.3,258 
		206.7,258.1 206.8,277.2 217.3,277.1 217.3,274.4 	"/>
</g>
</svg>
